<svg width="260" height="287" viewBox="0 0 260 287" fill="none" xmlns="http://www.w3.org/2000/svg">
<path d="M0 286.946V110.763C0 49.6886 49.6886 0 110.763 0H130.335C161.908 0 189.077 8.72489 211.087 25.9319C224.9 36.7274 235.662 50.1979 243.083 65.9626C250.271 81.2324 253.917 97.8349 253.917 115.313V117.86C253.917 122.596 253.641 127.308 253.093 131.954C257.187 143.735 259.257 156.082 259.257 168.776V171.323C259.257 188.749 255.649 205.318 248.538 220.564C241.179 236.334 230.493 249.823 216.775 260.661C194.699 278.106 167.41 286.95 135.671 286.95H0V286.946Z" fill="#4AE2AB"/>
<path d="M28.5586 258.385L28.5586 110.762C28.5586 65.4383 65.4335 28.5586 110.762 28.5586H130.335C155.381 28.5586 176.629 35.2462 193.498 48.4312C203.756 56.4516 211.748 66.4378 217.246 78.1234C222.629 89.5614 225.356 102.07 225.356 115.308V117.854C225.356 123.771 224.8 129.564 223.7 135.175C228.303 145.662 230.697 157.066 230.697 168.771V171.317C230.697 184.54 227.993 197.045 222.658 208.483C217.198 220.182 209.263 230.197 199.072 238.246C182.16 251.607 160.831 258.385 135.675 258.385H28.5586V258.385Z" fill="#FFF500"/>
<path d="M28.5586 258.385L28.5586 110.762C28.5586 65.4383 65.4335 28.5586 110.762 28.5586H130.335C155.381 28.5586 176.629 35.2462 193.498 48.4312C203.756 56.4516 211.748 66.4378 217.246 78.1234C222.629 89.5614 225.356 102.07 225.356 115.308V117.854C225.356 123.771 224.8 129.564 223.7 135.175C228.303 145.662 230.697 157.066 230.697 168.771V171.317C230.697 184.54 227.993 197.045 222.658 208.483C217.198 220.182 209.263 230.197 199.072 238.246C182.16 251.607 160.831 258.385 135.675 258.385H28.5586V258.385Z" fill="#9492FF"/>
<path d="M57.1191 229.827L57.1191 110.763C57.1191 81.1852 81.1804 57.1191 110.763 57.1191H130.336C148.852 57.1191 164.188 61.7648 175.912 70.9324C189.382 81.4613 196.803 97.2213 196.803 115.309V117.855C196.803 125.209 195.556 132.211 193.147 138.585C198.988 147.395 202.144 157.881 202.144 168.772V171.319C202.144 189.444 194.766 205.257 181.371 215.838C169.624 225.12 154.25 229.827 135.681 229.827H57.1191V229.827Z" fill="#FFF500"/>
<path d="M149.285 142.463C162.922 139.517 168.239 129.378 168.239 117.855V115.308C168.239 96.4779 154.421 85.6777 130.336 85.6777H110.758C96.9072 85.6777 85.6738 96.9063 85.6738 110.762V201.267H135.672C159.762 201.267 173.575 190.353 173.575 171.318V168.771C173.575 155.977 165.036 144.943 149.28 142.463H149.285ZM119.288 118.63H135.201C137.757 118.63 139.837 120.711 139.837 123.267C139.837 125.823 137.757 127.903 135.201 127.903H119.288C116.732 127.903 114.652 125.823 114.652 123.267C114.652 120.711 116.732 118.63 119.288 118.63V118.63ZM136.79 168.314H119.288C116.732 168.314 114.652 166.234 114.652 163.678C114.652 161.122 116.732 159.042 119.288 159.042H136.79C139.346 159.042 141.426 161.122 141.426 163.678C141.426 166.234 139.346 168.314 136.79 168.314Z" fill="#272525"/>
</svg>
