<svg width="261" height="287" viewBox="0 0 261 287" fill="none" xmlns="http://www.w3.org/2000/svg">
<path d="M0.751953 286.946L0.751953 110.763C0.751953 49.6886 50.4405 0 111.515 0L131.087 0C162.66 0 189.829 8.72489 211.839 25.9319C225.652 36.7274 236.414 50.1979 243.835 65.9626C251.023 81.2324 254.669 97.8349 254.669 115.313V117.86C254.669 122.596 254.393 127.308 253.845 131.954C257.939 143.735 260.009 156.082 260.009 168.776V171.323C260.009 188.749 256.401 205.318 249.29 220.564C241.931 236.334 231.245 249.823 217.527 260.661C195.451 278.106 168.162 286.95 136.423 286.95H0.751953V286.946Z" fill="#EC506C"/>
<path d="M29.3105 258.385L29.3105 110.762C29.3105 65.4383 66.1855 28.5586 111.514 28.5586L131.087 28.5586C156.133 28.5586 177.381 35.2462 194.25 48.4312C204.508 56.4516 212.5 66.4378 217.998 78.1234C223.381 89.5614 226.108 102.07 226.108 115.308V117.854C226.108 123.771 225.552 129.564 224.452 135.175C229.055 145.662 231.449 157.066 231.449 168.771V171.317C231.449 184.54 228.745 197.045 223.41 208.483C217.95 220.182 210.015 230.197 199.824 238.246C182.912 251.607 161.583 258.385 136.427 258.385H29.3105V258.385Z" fill="#FFF500"/>
<path d="M29.3105 258.385L29.3105 110.762C29.3105 65.4383 66.1855 28.5586 111.514 28.5586L131.087 28.5586C156.133 28.5586 177.381 35.2462 194.25 48.4312C204.508 56.4516 212.5 66.4378 217.998 78.1234C223.381 89.5614 226.108 102.07 226.108 115.308V117.854C226.108 123.771 225.552 129.564 224.452 135.175C229.055 145.662 231.449 157.066 231.449 168.771V171.317C231.449 184.54 228.745 197.045 223.41 208.483C217.95 220.182 210.015 230.197 199.824 238.246C182.912 251.607 161.583 258.385 136.427 258.385H29.3105V258.385Z" fill="#9492FF"/>
<path d="M57.8711 229.827L57.8711 110.763C57.8711 81.1852 81.9324 57.1191 111.515 57.1191H131.088C149.604 57.1191 164.94 61.7648 176.664 70.9324C190.134 81.4613 197.555 97.2213 197.555 115.309V117.855C197.555 125.209 196.308 132.211 193.899 138.585C199.74 147.395 202.896 157.881 202.896 168.772V171.319C202.896 189.444 195.518 205.257 182.123 215.838C170.376 225.12 155.002 229.827 136.433 229.827H57.8711V229.827Z" fill="#FFF500"/>
<path d="M150.037 142.463C163.674 139.517 168.991 129.378 168.991 117.855V115.308C168.991 96.4779 155.173 85.6777 131.088 85.6777H111.51C97.6591 85.6777 86.4258 96.9063 86.4258 110.762L86.4258 201.267H136.424C160.514 201.267 174.327 190.353 174.327 171.318V168.771C174.327 155.977 165.788 144.943 150.032 142.463H150.037ZM120.04 118.63H135.953C138.509 118.63 140.589 120.711 140.589 123.267C140.589 125.823 138.509 127.903 135.953 127.903H120.04C117.484 127.903 115.404 125.823 115.404 123.267C115.404 120.711 117.484 118.63 120.04 118.63V118.63ZM137.542 168.314H120.04C117.484 168.314 115.404 166.234 115.404 163.678C115.404 161.122 117.484 159.042 120.04 159.042H137.542C140.098 159.042 142.178 161.122 142.178 163.678C142.178 166.234 140.098 168.314 137.542 168.314Z" fill="#272525"/>
</svg>
